<svg width="1180" height="119" viewBox="0 0 1180 119" fill="none" xmlns="http://www.w3.org/2000/svg">
<path d="M1099.4 2.61937C1101.06 4.29706 1102 6.5722 1102 8.94445C1102 11.3167 1101.06 13.5918 1099.4 15.2695L1055.44 59.554L1099.4 103.838C1101.02 105.526 1101.91 107.786 1101.89 110.131C1101.87 112.477 1100.94 114.721 1099.29 116.38C1097.64 118.038 1095.42 118.979 1093.09 119C1090.76 119.02 1088.52 118.118 1086.84 116.489L1036.6 65.8791C1034.94 64.2014 1034 61.9263 1034 59.554C1034 57.1818 1034.94 54.9066 1036.6 53.2289L1086.84 2.61937C1088.51 0.94219 1090.77 0 1093.12 0C1095.48 0 1097.73 0.94219 1099.4 2.61937Z" fill="white"/>
<path d="M1178.16 19.849C1179.34 21.0332 1180 22.6392 1180 24.3137C1180 25.9883 1179.34 27.5942 1178.16 28.7785L1147.13 60.0381L1178.16 91.2978C1179.31 92.4888 1179.94 94.084 1179.92 95.7398C1179.91 97.3956 1179.25 98.9795 1178.09 100.15C1176.93 101.321 1175.35 101.985 1173.71 102C1172.07 102.014 1170.48 101.378 1169.3 100.227L1133.84 64.5029C1132.66 63.3186 1132 61.7127 1132 60.0381C1132 58.3636 1132.66 56.7576 1133.84 55.5734L1169.3 19.849C1170.48 18.6651 1172.07 18 1173.73 18C1175.39 18 1176.99 18.6651 1178.16 19.849Z" fill="white"/>
<path d="M80.6003 116.381C78.9353 114.703 78 112.428 78 110.056C78 107.683 78.9353 105.408 80.6003 103.73L124.563 59.446L80.6003 15.1615C78.9825 13.4742 78.0873 11.2143 78.1076 8.86862C78.1278 6.52291 79.0618 4.27905 80.7085 2.62032C82.3552 0.961593 84.5827 0.0207237 86.9113 0.000340111C89.24 -0.0200434 91.4834 0.881699 93.1584 2.51135L143.4 53.1209C145.065 54.7986 146 57.0737 146 59.446C146 61.8182 145.065 64.0934 143.4 65.7711L93.1584 116.381C91.4929 118.058 89.2344 119 86.8794 119C84.5244 119 82.2658 118.058 80.6003 116.381Z" fill="white"/>
<path d="M1.83551 99.151C0.660235 97.9668 -1.00274e-06 96.3608 -1.00274e-06 94.6863C-1.00274e-06 93.0117 0.660235 91.4058 1.83551 90.2215L32.8677 58.9619L1.83551 27.7022C0.693543 26.5112 0.0616508 24.916 0.0759345 23.2602C0.0902182 21.6044 0.749534 20.0205 1.91188 18.8496C3.07423 17.6788 4.6466 17.0146 6.29035 17.0002C7.93409 16.9859 9.51768 17.6224 10.7001 18.7727L46.1645 54.4971C47.3398 55.6814 48 57.2873 48 58.9619C48 60.6364 47.3398 62.2424 46.1645 63.4266L10.7001 99.151C9.52442 100.335 7.93013 101 6.26778 101C4.60544 101 3.01115 100.335 1.83551 99.151Z" fill="white"/>
</svg>
