<svg width="598" height="57" viewBox="0 0 598 57" fill="none" xmlns="http://www.w3.org/2000/svg">
<path d="M238.565 57C270.54 57 295.835 42.8821 320.317 29.2177L320.4 29.1714L320.407 29.1674C344.701 15.5901 369.834 1.54325 401.396 1.54325C432.87 1.54325 457.93 15.5123 482.171 29.0246L482.381 29.1413C495.4 36.4467 508.865 43.9726 523.202 49.2838L523.776 47.8808C509.567 42.6197 496.144 35.1239 483.188 27.8386C458.744 14.1498 433.386 0 401.353 0C369.359 0 344.087 14.1156 319.607 27.7889L319.518 27.8386C295.223 41.4172 270.098 55.4568 238.523 55.4568C206.947 55.4568 181.823 41.4272 157.516 27.8386C133.072 14.1498 107.714 0 75.6814 0V1.50316C107.257 1.50316 132.381 15.5327 156.688 29.1313L156.701 29.139C181.247 42.8555 206.56 57 238.565 57Z" fill="#FF0000"/>
<path d="M238.565 57C270.54 57 295.835 42.8821 320.317 29.2177L320.4 29.1714L320.407 29.1674C344.701 15.5901 369.834 1.54325 401.396 1.54325C432.87 1.54325 457.93 15.5123 482.171 29.0246L482.381 29.1413C495.4 36.4467 508.865 43.9726 523.202 49.2838L523.776 47.8808C509.567 42.6197 496.144 35.1239 483.188 27.8386C458.744 14.1498 433.386 0 401.353 0C369.359 0 344.087 14.1156 319.607 27.7889L319.518 27.8386C295.223 41.4172 270.098 55.4568 238.523 55.4568C206.947 55.4568 181.823 41.4272 157.516 27.8386C133.072 14.1498 107.714 0 75.6814 0V1.50316C107.257 1.50316 132.381 15.5327 156.688 29.1313L156.701 29.139C181.247 42.8555 206.56 57 238.565 57Z" stroke="#FF0000"/>
</svg>
