<svg width="1226" height="57" viewBox="0 0 1226 57" fill="none" xmlns="http://www.w3.org/2000/svg">
<path d="M476.581 57C549.644 57 607.443 42.8821 663.384 29.2176L663.574 29.1714L663.59 29.1674C719.1 15.5901 776.529 1.54325 848.648 1.54325C920.567 1.54325 977.829 15.5123 1033.22 29.0246L1033.7 29.1413C1063.45 36.4467 1094.22 43.9726 1126.98 49.2838L1128.29 47.8808C1095.82 42.6197 1065.15 35.1239 1035.54 27.8386C979.689 14.1498 921.745 0 848.551 0C775.445 0 717.698 14.1156 661.761 27.7889L661.558 27.8386C606.043 41.4172 548.634 55.4568 476.484 55.4568C404.334 55.4568 346.924 41.4272 291.385 27.8386C235.53 14.1498 177.587 0 104.392 0V1.50316C176.542 1.50316 233.952 15.5327 289.491 29.1313L289.522 29.1389C345.61 42.8554 403.449 57 476.581 57Z" fill="#FF0000"/>
<path d="M476.581 57C549.644 57 607.443 42.8821 663.384 29.2176L663.574 29.1714L663.59 29.1674C719.1 15.5901 776.529 1.54325 848.648 1.54325C920.567 1.54325 977.829 15.5123 1033.22 29.0246L1033.7 29.1413C1063.45 36.4467 1094.22 43.9726 1126.98 49.2838L1128.29 47.8808C1095.82 42.6197 1065.15 35.1239 1035.54 27.8386C979.689 14.1498 921.745 0 848.551 0C775.445 0 717.698 14.1156 661.761 27.7889L661.558 27.8386C606.043 41.4172 548.634 55.4568 476.484 55.4568C404.334 55.4568 346.924 41.4272 291.385 27.8386C235.53 14.1498 177.587 0 104.392 0V1.50316C176.542 1.50316 233.952 15.5327 289.491 29.1313L289.522 29.1389C345.61 42.8554 403.449 57 476.581 57Z" stroke="#FF0000"/>
</svg>
