<svg width="1226" height="57" viewBox="0 0 1226 57" fill="none" xmlns="http://www.w3.org/2000/svg">
<path d="M472.215 57C547.375 57 606.832 42.8821 664.379 29.2176L664.573 29.1714L664.59 29.1674C721.693 15.5901 780.77 1.54325 854.958 1.54325C928.94 1.54325 987.845 15.5122 1044.82 29.0246L1045.32 29.1413C1075.92 36.4467 1107.57 43.9726 1141.27 49.2838L1142.62 47.8808C1109.22 42.6197 1077.67 35.1239 1047.22 27.8386C989.758 14.1498 930.152 0 854.858 0C779.654 0 720.251 14.1156 662.709 27.7889L662.5 27.8386C605.392 41.4172 546.336 55.4568 472.115 55.4568C397.895 55.4568 338.839 41.4272 281.706 27.8386C224.249 14.1498 164.643 0 89.3481 0V1.50316C163.568 1.50316 222.625 15.5327 279.758 29.1313L279.79 29.139C337.487 42.8555 396.985 57 472.215 57Z" fill="#FF0000"/>
<path d="M472.215 57C547.375 57 606.832 42.8821 664.379 29.2176L664.573 29.1714L664.59 29.1674C721.693 15.5901 780.77 1.54325 854.958 1.54325C928.94 1.54325 987.845 15.5122 1044.82 29.0246L1045.32 29.1413C1075.92 36.4467 1107.57 43.9726 1141.27 49.2838L1142.62 47.8808C1109.22 42.6197 1077.67 35.1239 1047.22 27.8386C989.758 14.1498 930.152 0 854.858 0C779.654 0 720.251 14.1156 662.709 27.7889L662.5 27.8386C605.392 41.4172 546.336 55.4568 472.115 55.4568C397.895 55.4568 338.839 41.4272 281.706 27.8386C224.249 14.1498 164.643 0 89.3481 0V1.50316C163.568 1.50316 222.625 15.5327 279.758 29.1313L279.79 29.139C337.487 42.8555 396.985 57 472.215 57Z" stroke="#FF0000"/>
</svg>
