<svg width="1237" height="300" viewBox="0 0 1237 300" fill="none" xmlns="http://www.w3.org/2000/svg">
<g clip-path="url(#clip0_513_1003)">
<path d="M1234.64 31.4845C1236.08 16.9256 1225.44 3.95561 1210.88 2.51526C1196.32 1.07492 1183.35 11.7096 1181.91 26.2686C1180.47 40.8275 1191.11 53.7975 1205.67 55.2379C1220.22 56.6782 1233.19 46.0435 1234.64 31.4845Z" fill="#FF0000"/>
<path d="M1189.21 119.87C1185.92 100.217 1173.3 90.39 1151.33 90.39C1129.18 90.39 1116.92 100.217 1114.55 119.87H1189.21ZM1219.6 203.79H1154C1110.07 203.79 1087.56 180.377 1086.47 133.55C1085.35 86.5167 1106.76 63 1150.69 63C1194.44 63 1216.87 86.47 1217.96 133.41L1218.28 147.18H1115.19C1118.48 166.66 1131.19 176.397 1153.33 176.39H1219L1219.6 203.79ZM1037.76 119.87C1034.47 100.217 1021.84 90.39 999.871 90.39C977.731 90.39 965.474 100.217 963.101 119.87H1037.76ZM1068.15 203.79H1002.52C958.594 203.79 936.081 180.377 934.981 133.55C933.894 86.5167 955.314 63 999.241 63C1042.99 63 1065.42 86.47 1066.51 133.41L1066.83 147.18H963.731C967.017 166.66 979.734 176.397 1001.88 176.39H1067.51L1068.15 203.79ZM893.801 133.55C893.461 119.157 890.827 108.767 885.901 102.38C879.694 94.38 869.237 90.38 854.531 90.38H816.531L817.531 133.54C817.864 147.74 820.494 158.037 825.421 164.43C831.461 172.43 841.831 176.43 856.531 176.43C871.231 176.43 881.497 172.43 887.331 164.43C891.977 158.057 894.134 147.763 893.801 133.55ZM921.431 133.55C922.524 180.37 901.107 203.783 857.181 203.79C813.421 203.79 790.994 180.33 789.901 133.41L787.001 7.53003H814.601L815.901 63H853.901C897.827 63 920.337 86.5167 921.431 133.55ZM738.841 119.87C735.554 100.223 722.941 90.3967 701.001 90.39C678.861 90.39 666.601 100.217 664.221 119.87H738.841ZM769.231 203.79H703.601C659.667 203.79 637.154 180.377 636.061 133.55C634.974 86.5167 656.391 63 700.311 63C744.071 63 766.494 86.47 767.581 133.41L767.911 147.18H664.811C668.104 166.66 680.821 176.397 702.961 176.39H768.591L769.231 203.79ZM617.771 203.79H590.141L588.501 133.41C588.161 119.07 585.527 108.713 580.601 102.34C574.561 94.34 564.194 90.34 549.501 90.34C534.807 90.34 524.537 94.34 518.691 102.34C514.024 108.707 511.874 119.063 512.241 133.41L513.881 203.79H486.251L484.611 133.55C483.537 86.5167 504.954 63 548.861 63C592.614 63 615.037 86.5033 616.131 133.51L617.771 203.79ZM436.511 133.55C436.177 119.157 433.544 108.767 428.611 102.38C422.611 94.38 412.244 90.38 397.511 90.38C382.777 90.38 372.597 94.38 366.971 102.38C362.304 108.76 360.154 119.15 360.521 133.55C360.887 147.95 363.521 158.333 368.421 164.7C374.421 172.54 384.787 176.45 399.521 176.43C414.254 176.41 424.437 172.5 430.071 164.7C434.691 158.333 436.837 147.95 436.511 133.55ZM464.151 133.55C465.244 180.37 443.911 203.783 400.151 203.79C356.211 203.79 333.697 180.377 332.611 133.55C331.537 86.5167 352.957 63 396.871 63C440.631 63 463.057 86.5167 464.151 133.55Z" fill="#FF0000"/>
<path fill-rule="evenodd" clip-rule="evenodd" d="M854.45 109.37C860.589 109.399 866.477 111.815 870.866 116.108C875.256 120.4 877.803 126.232 877.97 132.37C878.06 135.368 877.545 138.354 876.455 141.149C875.366 143.944 873.725 146.491 871.629 148.638C869.534 150.784 867.028 152.487 864.26 153.644C861.492 154.8 858.519 155.387 855.52 155.37C849.378 155.344 843.488 152.928 839.096 148.635C834.705 144.343 832.156 138.509 831.99 132.37C831.904 129.372 832.422 126.387 833.513 123.593C834.605 120.799 836.247 118.254 838.343 116.108C840.438 113.962 842.944 112.259 845.712 111.102C848.479 109.944 851.45 109.355 854.45 109.37Z" fill="#FF0000"/>
<path d="M6.21955 122.62L3.62955 128.05ZM6.87955 116.24L4.56955 121.81ZM9.37955 101.71L5.88955 109.05ZM200.77 52.5202C188.31 46.3802 171.803 42.4368 151.25 40.6901C130.508 38.9767 109.654 42.1339 90.3496 49.9101C70.3096 57.8101 55.1195 72.6234 44.7795 94.3501C30.6595 124.037 28.3995 153.037 37.9995 181.35C47.5996 209.663 61.2929 228.213 79.0796 237L99.4195 247C119.22 256.753 141.39 257.95 165.93 250.59C190.47 243.23 208.206 228.057 219.14 205.07C228.7 184.97 230.003 164.04 223.05 142.28C216.096 120.52 201.53 104.187 179.35 93.2802C164.136 85.7802 147.836 83.8935 130.45 87.6201C113.063 91.3468 100.71 100.907 93.3895 116.3C87.0229 129.7 85.7629 142.937 89.6096 156.01C93.4562 169.083 100.146 177.967 109.68 182.66C116.27 185.91 121.63 186.83 125.34 184.66C130.75 181.53 133.17 176.05 135.73 170.66L140.45 163.6C141.9 161.43 142.58 158.17 143.45 154.36L156.38 160.73L164.63 176.2C167.92 182.36 166.24 192.08 160.04 205.12C154.8 216.173 145.08 223.8 130.88 228C116.68 232.2 104.72 231.883 94.9995 227.05C75.3862 217.39 61.9729 204.803 54.7595 189.29C47.5495 173.78 44.5696 158.41 45.9696 143.21C46.6178 136.471 47.7473 129.788 49.3496 123.21C50.658 117.436 52.5511 111.81 54.9995 106.42C68.0862 78.9001 88.3429 62.0035 115.77 55.7301C143.196 49.4568 168.36 51.9635 191.26 63.2501C217.646 76.2568 236.096 96.8035 246.61 124.89C257.123 152.977 256.216 179.977 243.89 205.89C230.363 234.303 213.093 253.673 192.08 264C171.066 274.327 150.48 278.597 130.32 276.81C110.18 275.05 93.3196 270.823 79.7396 264.13C56.0062 252.43 37.6362 236.67 24.6295 216.85C11.6229 197.03 4.78955 184.443 4.12955 179.09C3.50288 173.757 3.50288 165.817 4.12955 155.27C4.75621 144.723 4.75621 136.51 4.12955 130.63L1.53955 136.06L5.12955 177.73C6.48955 193.49 12.7396 210.37 23.2296 228.39C33.7196 246.41 51.6296 261.67 76.9696 274.15C97.1796 284.15 115.06 291.27 130.62 290.86L172 289.78C176.76 292.134 190.41 284.167 212.95 265.88C235.49 247.593 249.043 233.65 253.61 224.05C265.75 198.523 269.75 173.837 265.61 149.99C261.47 126.143 252.866 105.54 239.8 88.1801C226.793 70.8201 213.783 58.9335 200.77 52.5202ZM205.23 29.5802C240.79 47.1002 263.91 68.8868 274.59 94.9401C285.28 120.94 291.38 149.51 286.02 179.36L276.33 233.26L259.45 225.94L236.94 255.42C220.65 276.75 195.69 288.63 168.26 296.35C140.83 304.07 108.74 298.87 72.0895 280.81C57.0054 273.372 43.1727 263.629 31.0895 251.93C31.7858 251.594 32.3465 251.03 32.6792 250.332C33.0119 249.634 33.0967 248.843 32.9195 248.09L33.0496 248.16C32.4996 247.4 32.6296 246.93 31.6596 246.25C22.5224 233.812 14.8925 220.335 8.92955 206.1C3.54907 192.699 0.625763 178.438 0.299552 164C-0.160448 149.02 0.309548 137.687 1.70955 130C2.8069 123.304 4.77002 116.78 7.54955 110.59C8.49657 108.267 9.57498 106 10.7795 103.8C12.2995 101.36 13.8396 99.9501 14.4696 98.9101L19.2996 90.9101C20.6464 88.796 21.5299 86.4206 21.8918 83.9402C22.2538 81.4598 22.086 78.931 21.3996 76.5202L11.0595 98.2501C30.4395 57.5101 58.0262 31.1501 93.8196 19.1701C129.613 7.19012 166.75 10.6602 205.23 29.5802Z" fill="#FF0000"/>
<path fill-rule="evenodd" clip-rule="evenodd" d="M116.26 122.18C119.946 122.197 123.481 123.65 126.113 126.23C128.746 128.811 130.269 132.315 130.36 136C130.411 137.796 130.1 139.584 129.446 141.257C128.791 142.931 127.807 144.455 126.551 145.74C125.295 147.025 123.793 148.044 122.135 148.736C120.477 149.429 118.697 149.78 116.9 149.77C113.222 149.754 109.693 148.308 107.061 145.739C104.428 143.169 102.897 139.677 102.79 136C102.741 134.203 103.053 132.415 103.708 130.741C104.364 129.067 105.349 127.542 106.606 126.256C107.862 124.971 109.364 123.951 111.023 123.258C112.682 122.564 114.463 122.211 116.26 122.22" fill="#FF0000"/>
<path d="M1201.28 288.71L1200.15 240.16H1209.15C1214.8 240.16 1218.94 242.073 1221.58 245.9C1224.22 249.727 1225.64 255.88 1225.84 264.36C1226.04 272.92 1224.91 279.117 1222.44 282.95C1219.97 286.783 1215.92 288.703 1210.28 288.71H1201.28ZM1205.28 244.46L1206.2 284.14L1207.91 284.28H1208.91C1213.5 284.28 1216.68 282.817 1218.47 279.89C1220.26 276.963 1221.06 271.72 1220.87 264.16C1220.7 256.687 1219.67 251.507 1217.76 248.62C1215.85 245.733 1212.62 244.28 1208.05 244.26C1207.74 244.26 1207.4 244.26 1207.05 244.26C1206.7 244.26 1206.05 244.39 1205.29 244.46H1205.28ZM1174.28 255.15C1173.55 253.32 1172.87 251.49 1172.22 249.62C1171.57 247.75 1170.93 245.86 1170.31 243.93L1171.36 288.71H1167L1165.87 240.16H1173.12L1183.8 267.69C1184.61 269.88 1185.38 271.98 1186.07 273.97C1186.76 275.96 1187.42 277.91 1188.01 279.79C1187.84 278.34 1187.72 276.87 1187.61 275.33C1187.5 273.79 1187.43 271.75 1187.37 269.17L1186.69 240.17H1191.06L1192.19 288.72H1187.3L1174.28 255.15ZM1133.87 288.71L1143.26 240.16H1150.13L1161.89 288.71H1156.63L1153.48 274.4H1141.25L1138.76 288.71H1133.87ZM1142.22 269.84H1152.36L1146.68 244.45L1142.22 269.84ZM1106 288.71L1104.87 240.16H1113.72C1118.98 240.16 1122.93 241.217 1125.58 243.33C1128.23 245.443 1129.6 248.637 1129.69 252.91C1129.85 255.514 1129.22 258.107 1127.89 260.35C1126.58 262.368 1124.6 263.851 1122.29 264.53L1130.79 288.71H1125.42L1117.56 265.61L1114.45 265.71H1112.38H1110.44L1110.98 288.71H1106ZM1110.34 261.38H1114.57C1117.9 261.38 1120.39 260.677 1122.02 259.27C1123.66 257.85 1124.45 255.74 1124.38 252.92C1124.31 250.1 1123.44 247.92 1121.76 246.56C1120.08 245.2 1117.55 244.46 1114.18 244.46H1109.95L1110.34 261.38ZM1074.09 288.71L1072.95 240.16H1081.8C1084.43 240.051 1087.05 240.324 1089.6 240.97C1091.26 241.524 1092.77 242.471 1093.99 243.73C1094.99 244.732 1095.75 245.945 1096.22 247.28C1096.77 248.818 1097.06 250.437 1097.08 252.07C1097.23 254.46 1096.69 256.843 1095.51 258.93C1094.31 260.836 1092.51 262.294 1090.4 263.08C1092.87 263.847 1095.03 265.398 1096.54 267.5C1097.99 269.782 1098.74 272.438 1098.69 275.14C1098.8 279.733 1097.61 283.14 1095.12 285.36C1092.63 287.58 1088.8 288.697 1083.61 288.71H1074.09ZM1078.42 261.25H1083C1086.13 261.25 1088.48 260.51 1090 259.02C1091.52 257.53 1092.32 255.33 1092.25 252.39C1092.18 249.45 1091.37 247.49 1089.82 246.28C1088.27 245.07 1085.65 244.46 1081.93 244.46H1077.93L1078.42 261.25ZM1078.95 284.25H1083.95C1087.44 284.25 1089.97 283.507 1091.53 282.02C1093.1 280.53 1093.84 278.19 1093.76 275.02C1093.68 271.85 1092.76 269.36 1091.07 267.81C1089.38 266.26 1086.69 265.49 1083.07 265.49H1078.44L1078.95 284.25ZM1034.47 288.68L1033.34 240.13H1038.34L1039.34 284.04H1054.59L1054.7 288.68H1034.47ZM1020.3 288.68L1019.16 240.13H1024.16L1025.29 288.68H1020.3ZM987.111 288.68L996.501 240.13H1003.37L1015.13 288.68H1009.87L1006.72 274.37H994.491L992.001 288.71L987.111 288.68ZM995.461 269.81H1005.6L999.921 244.42L995.461 269.81ZM972.731 288.68L971.731 244.3H961.991L961.891 240.13H986.281L986.371 244.3H976.631L977.631 288.68H972.731ZM938.731 288.68L937.601 240.13H959.431L959.541 244.63H942.681L943.071 261.35H955.431L955.531 265.78H943.171L943.601 284.18H961.001L961.111 288.68H938.731ZM907.301 288.68L906.171 240.13H915.001C920.267 240.13 924.224 241.187 926.871 243.3C929.501 245.4 930.871 248.59 930.981 252.88C931.136 255.484 930.509 258.075 929.181 260.32C927.873 262.338 925.887 263.821 923.581 264.5L932.081 288.68H926.711L918.851 265.58L915.741 265.68H913.671H911.731L912.261 288.68H907.301ZM911.641 261.35H915.871C919.204 261.35 921.687 260.647 923.321 259.24C924.961 257.82 925.751 255.71 925.681 252.89C925.611 250.07 924.741 247.89 923.061 246.53C921.381 245.17 918.841 244.43 915.471 244.43H911.241L911.641 261.35ZM873.401 288.68L872.401 244.3H862.601L862.511 240.13H886.891L886.991 244.3H877.251L878.251 288.68H873.401ZM839.401 271.29C839.247 265.03 840.001 260.423 841.661 257.47C842.415 256.051 843.559 254.878 844.96 254.089C846.36 253.3 847.956 252.929 849.561 253.02C851.168 252.962 852.759 253.355 854.155 254.154C855.551 254.952 856.696 256.125 857.461 257.54C859.247 260.56 860.214 265.143 860.361 271.29C860.507 277.437 859.721 282.007 858.001 285C857.3 286.421 856.201 287.608 854.837 288.414C853.473 289.22 851.904 289.612 850.321 289.54C848.69 289.615 847.071 289.239 845.64 288.454C844.21 287.669 843.023 286.505 842.211 285.09C840.431 282.137 839.471 277.547 839.331 271.32L839.401 271.29ZM844.171 271.29C844.291 276.403 844.824 280.03 845.771 282.17C846.087 283.111 846.692 283.928 847.5 284.504C848.308 285.081 849.278 285.387 850.271 285.38C852.217 285.38 853.607 284.263 854.441 282.03C855.271 279.8 855.641 276.22 855.521 271.29C855.401 266.36 854.871 262.73 853.941 260.48C853.011 258.23 851.561 257.11 849.621 257.11C847.681 257.11 846.101 258.2 845.261 260.36C844.421 262.52 844.001 266.2 844.101 271.33L844.171 271.29ZM827.911 288.67L826.781 240.12H831.781L832.911 288.67H827.911ZM793.911 288.67L792.911 244.29H783.001L782.901 240.12H807.291L807.391 244.29H797.641L798.641 288.67H793.911ZM756.461 275.78H761.161C761.414 278.947 762.184 281.28 763.471 282.78C764.178 283.562 765.052 284.174 766.029 284.57C767.005 284.967 768.059 285.137 769.111 285.07C770.07 285.108 771.025 284.931 771.906 284.55C772.787 284.169 773.571 283.595 774.201 282.87C775.539 281.23 776.197 279.14 776.041 277.03C775.993 274.927 775.294 272.89 774.041 271.2C772.781 269.45 770.211 267.2 766.321 264.33C762.431 261.46 759.841 259.07 758.571 257.08C757.273 254.975 756.581 252.553 756.571 250.08C756.493 248.654 756.71 247.228 757.207 245.889C757.704 244.551 758.471 243.329 759.461 242.3C760.437 241.268 761.621 240.455 762.934 239.914C764.248 239.373 765.661 239.116 767.081 239.16C768.686 239.083 770.29 239.352 771.782 239.949C773.275 240.546 774.621 241.457 775.731 242.62C777.861 244.94 779.041 248.16 779.271 252.32H774.701C774.61 249.906 773.825 247.57 772.441 245.59C771.837 244.841 771.065 244.246 770.187 243.853C769.309 243.461 768.351 243.281 767.391 243.33C766.518 243.286 765.646 243.426 764.831 243.741C764.016 244.056 763.276 244.54 762.661 245.16C762.072 245.829 761.623 246.609 761.34 247.454C761.057 248.299 760.945 249.191 761.011 250.08C761.034 251.14 761.272 252.184 761.711 253.15C762.147 254.14 762.753 255.047 763.501 255.83C765.061 257.34 766.732 258.73 768.501 259.99C770.731 261.63 772.131 262.67 772.721 263.13C775.1 264.909 777.133 267.109 778.721 269.62C779.973 271.822 780.641 274.307 780.661 276.84C780.784 278.509 780.578 280.186 780.053 281.775C779.527 283.364 778.694 284.833 777.601 286.1C776.505 287.266 775.17 288.182 773.687 288.784C772.204 289.386 770.609 289.661 769.011 289.59C765.157 289.59 762.134 288.387 759.941 285.98C757.711 283.64 756.531 280.22 756.361 275.82L756.461 275.78ZM727.281 288.67L726.001 240.16H734.851C740.111 240.16 744.064 241.217 746.711 243.33C749.357 245.443 750.727 248.637 750.821 252.91C750.981 255.514 750.354 258.107 749.021 260.35C747.713 262.368 745.727 263.851 743.421 264.53L752.001 288.71H746.621L738.761 265.61L735.651 265.71H733.581H731.641L732.181 288.71L727.281 288.67ZM731.611 261.34H735.841C739.174 261.34 741.657 260.637 743.291 259.23C744.931 257.81 745.721 255.7 745.651 252.88C745.581 250.06 744.711 247.88 743.031 246.52C741.351 245.16 738.821 244.42 735.451 244.42H731.211L731.611 261.34ZM713.371 288.67L712.241 240.12H717.241L718.371 288.67H713.371ZM687.021 288.67L685.891 240.12H706.251L706.351 244.62H690.871L691.261 261.34H703.081L703.191 265.77H691.361L691.891 288.67H687.021ZM641.321 275.78H646.021C646.281 278.947 647.054 281.28 648.341 282.78C649.048 283.562 649.922 284.174 650.899 284.57C651.875 284.967 652.929 285.137 653.981 285.07C654.918 285.113 655.853 284.949 656.72 284.592C657.588 284.234 658.366 283.691 659.001 283C660.335 281.359 660.99 279.269 660.831 277.16C660.779 275.057 660.081 273.021 658.831 271.33C657.571 269.58 655.001 267.33 651.111 264.46C647.221 261.59 644.631 259.2 643.351 257.21C642.048 255.107 641.355 252.684 641.351 250.21C641.273 248.784 641.49 247.358 641.987 246.019C642.484 244.681 643.251 243.459 644.241 242.43C645.217 241.398 646.401 240.585 647.714 240.044C649.028 239.503 650.441 239.246 651.861 239.29C653.465 239.213 655.067 239.482 656.557 240.079C658.048 240.676 659.393 241.587 660.501 242.75C662.641 245.07 663.811 248.29 664.041 252.45H659.481C659.181 249.45 658.481 247.23 657.211 245.72C656.613 244.977 655.849 244.385 654.981 243.993C654.112 243.6 653.163 243.418 652.211 243.46C651.338 243.415 650.465 243.555 649.65 243.87C648.835 244.185 648.096 244.669 647.481 245.29C646.89 245.958 646.44 246.738 646.157 247.583C645.873 248.428 645.762 249.321 645.831 250.21C645.854 251.27 646.092 252.314 646.531 253.28C646.963 254.272 647.57 255.18 648.321 255.96C649.881 257.47 651.552 258.86 653.321 260.12C655.551 261.76 656.951 262.8 657.531 263.26C659.911 265.037 661.945 267.237 663.531 269.75C664.783 271.952 665.451 274.437 665.471 276.97C665.593 278.639 665.385 280.317 664.858 281.906C664.331 283.495 663.496 284.964 662.401 286.23C661.306 287.395 659.973 288.31 658.492 288.913C657.011 289.515 655.418 289.79 653.821 289.72C649.974 289.72 646.947 288.517 644.741 286.11C642.581 283.64 641.391 280.22 641.221 275.82L641.321 275.78ZM628.631 245.2L628.491 239.2H633.801L633.941 245.5L630.201 254.91H628.261L631.061 245.18L628.631 245.2ZM599.141 288.71L608.531 240.16H615.401L627.161 288.71H621.911L618.751 274.4H606.521L604.001 288.71H599.141ZM607.491 269.84H617.641L612.001 244.45L607.491 269.84ZM588.731 288.71L587.601 240.16H592.601L593.731 288.71H588.731ZM556.291 288.71L555.161 240.16H564.161C569.821 240.16 573.964 242.073 576.591 245.9C579.217 249.727 580.637 255.88 580.851 264.36C581.051 272.92 579.921 279.117 577.461 282.95C575.001 286.783 570.947 288.703 565.301 288.71H556.291ZM560.291 244.46L561.221 284.14L562.921 284.28H563.921C568.514 284.28 571.701 282.817 573.481 279.89C575.261 276.963 576.061 271.72 575.881 264.16C575.701 256.687 574.661 251.507 572.761 248.62C570.861 245.733 567.624 244.28 563.051 244.26C562.751 244.26 562.401 244.26 562.051 244.26C561.701 244.26 561.061 244.39 560.301 244.46H560.291ZM529.291 255.15C528.561 253.32 527.881 251.49 527.221 249.62C526.561 247.75 525.931 245.86 525.321 243.93L526.321 288.71H521.961L520.821 240.16H528.081L538.751 267.69C539.571 269.88 540.331 271.98 541.031 273.97C541.731 275.96 542.371 277.91 542.961 279.79C542.801 278.34 542.671 276.87 542.571 275.33C542.471 273.79 542.391 271.75 542.331 269.17L541.651 240.17H546.021L547.151 288.72H542.251L529.291 255.15ZM508.021 288.71L506.891 240.16H511.891L513.001 288.71H508.021Z" fill="#FF0000"/>
<path d="M1198.99 35.55V11.749H1209.55C1211.67 11.749 1213.28 11.9655 1214.39 12.3984C1215.49 12.8206 1216.37 13.5728 1217.03 14.6552C1217.69 15.7375 1218.02 16.9335 1218.02 18.2432C1218.02 19.9316 1217.48 21.3549 1216.38 22.5131C1215.29 23.6712 1213.6 24.4072 1211.32 24.7211C1212.15 25.1215 1212.78 25.5166 1213.22 25.9062C1214.14 26.7505 1215.01 27.8058 1215.83 29.0721L1219.97 35.55H1216.01L1212.86 30.5983C1211.94 29.1696 1211.18 28.0764 1210.59 27.3187C1209.99 26.5611 1209.46 26.0307 1208.98 25.7277C1208.51 25.4246 1208.04 25.2135 1207.55 25.0945C1207.19 25.0187 1206.61 24.9808 1205.8 24.9808H1202.14V35.55H1198.99ZM1202.14 22.2533H1208.91C1210.35 22.2533 1211.48 22.1072 1212.29 21.8149C1213.1 21.5119 1213.72 21.0356 1214.14 20.3862C1214.56 19.726 1214.78 19.0116 1214.78 18.2432C1214.78 17.1175 1214.36 16.1921 1213.54 15.4669C1212.73 14.7417 1211.44 14.3792 1209.68 14.3792H1202.14V22.2533Z" fill="#FF0000"/>
<path d="M1196.77 41.85V16H1207.77C1209.79 15.9067 1211.82 16.1397 1213.77 16.69C1215.02 17.1556 1216.08 18.0293 1216.77 19.17C1217.53 20.3888 1217.92 21.8026 1217.9 23.24C1217.96 24.9999 1217.35 26.7178 1216.19 28.04C1214.82 29.4124 1213.01 30.2585 1211.08 30.43C1212.11 31.0141 1213.05 31.7414 1213.87 32.59C1214.99 33.9026 1215.99 35.3076 1216.87 36.79L1220.02 41.79H1213.79L1210.02 36.17C1209.18 34.8461 1208.27 33.5768 1207.27 32.37C1206.84 31.8924 1206.3 31.5254 1205.7 31.3C1204.84 31.061 1203.96 30.9597 1203.07 31H1202.07V41.79L1196.77 41.85ZM1201.99 26.94H1205.84C1207.41 27.0243 1208.99 26.9169 1210.53 26.62C1211.12 26.431 1211.64 26.0471 1211.99 25.53C1212.36 24.954 1212.55 24.276 1212.52 23.59C1212.56 22.8289 1212.31 22.081 1211.83 21.49C1211.3 20.9299 1210.59 20.5754 1209.83 20.49C1209.41 20.44 1208.14 20.41 1206.03 20.41H1202L1201.99 26.94Z" fill="white"/>
</g>
<defs>
<clipPath id="clip0_513_1003">
<rect width="1237" height="300" fill="white"/>
</clipPath>
</defs>
</svg>
