<svg width="414" height="625" viewBox="0 0 414 625" fill="none" xmlns="http://www.w3.org/2000/svg">
<g filter="url(#filter0_d_504_964)">
<rect x="7" y="5" width="400" height="611" rx="4" fill="white"/>
<path d="M38.3343 289.735H42.5038L47.0228 300.758H47.2134L51.7324 289.735H55.894V306H52.6219V295.35H52.4789L48.2379 305.929H45.9903L41.7414 295.31H41.6143V306H38.3343V289.735ZM63.988 306.238C60.3029 306.238 57.9997 303.705 57.9997 299.948C57.9997 296.168 60.3029 293.642 63.988 293.642C67.681 293.642 69.9763 296.168 69.9763 299.948C69.9763 303.705 67.681 306.238 63.988 306.238ZM61.3751 299.924C61.3751 302.069 62.2725 303.657 64.0118 303.657C65.7114 303.657 66.6009 302.069 66.6009 299.924C66.6009 297.788 65.7114 296.184 64.0118 296.184C62.2725 296.184 61.3751 297.788 61.3751 299.924ZM71.9991 306V293.801H75.2236V295.922H75.3506C75.7954 294.421 76.9231 293.626 78.2892 293.626C78.6227 293.626 79.0516 293.674 79.3534 293.73V296.7C79.0436 296.605 78.4003 296.517 77.9318 296.517C76.4307 296.517 75.3189 297.566 75.3189 299.067V306H71.9991ZM86.0474 306.238C82.3067 306.238 80.0115 303.824 80.0115 299.956C80.0115 296.192 82.3385 293.642 85.9124 293.642C89.113 293.642 91.6306 295.667 91.6306 299.829V300.758H83.2994C83.2994 302.609 84.3954 303.744 86.103 303.744C87.2466 303.744 88.0487 303.252 88.3903 302.529H91.5512C91.0667 304.777 89.0494 306.238 86.0474 306.238ZM83.2994 298.677H88.4935C88.4856 297.2 87.4531 296.128 85.9679 296.128C84.4431 296.128 83.3789 297.28 83.2994 298.677ZM99.0462 306V289.735H105.424C109.125 289.735 111.245 292.014 111.245 295.231C111.245 298.463 109.085 300.703 105.344 300.703H102.422V306H99.0462ZM102.422 297.979H104.804C106.805 297.979 107.766 296.859 107.766 295.231C107.766 293.595 106.805 292.507 104.796 292.507H102.422V297.979ZM113.237 306V293.801H116.462V295.922H116.589C117.034 294.421 118.161 293.626 119.527 293.626C119.861 293.626 120.29 293.674 120.592 293.73V296.7C120.282 296.605 119.639 296.517 119.17 296.517C117.669 296.517 116.557 297.566 116.557 299.067V306H113.237ZM127.238 306.238C123.553 306.238 121.25 303.705 121.25 299.948C121.25 296.168 123.553 293.642 127.238 293.642C130.931 293.642 133.226 296.168 133.226 299.948C133.226 303.705 130.931 306.238 127.238 306.238ZM124.625 299.924C124.625 302.069 125.523 303.657 127.262 303.657C128.961 303.657 129.851 302.069 129.851 299.924C129.851 297.788 128.961 296.184 127.262 296.184C125.523 296.184 124.625 297.788 124.625 299.924ZM139.752 306.199C136.957 306.199 134.788 303.991 134.788 299.916C134.788 295.739 137.044 293.642 139.744 293.642C141.793 293.642 142.77 294.865 143.215 295.85H143.318V289.735H146.638V306H143.358V304.054H143.215C142.746 305.055 141.73 306.199 139.752 306.199ZM138.188 299.901C138.188 302.053 139.101 303.546 140.793 303.546C142.437 303.546 143.39 302.093 143.39 299.901C143.39 297.701 142.452 296.303 140.793 296.303C139.085 296.303 138.188 297.764 138.188 299.901ZM157.065 300.806V293.801H160.377V306H157.192V303.792H157.065C156.509 305.214 155.199 306.159 153.372 306.159C150.918 306.159 149.25 304.427 149.242 301.568V293.801H152.562V300.989C152.57 302.434 153.404 303.339 154.706 303.339C155.921 303.339 157.065 302.474 157.065 300.806ZM168.386 306.238C164.646 306.238 162.398 303.657 162.398 299.948C162.398 296.208 164.685 293.642 168.378 293.642C171.531 293.642 173.66 295.477 173.803 298.28H170.674C170.475 297.073 169.681 296.239 168.426 296.239C166.83 296.239 165.774 297.574 165.774 299.901C165.774 302.251 166.814 303.594 168.426 303.594C169.594 303.594 170.467 302.871 170.674 301.568H173.803C173.644 304.34 171.611 306.238 168.386 306.238ZM182.224 293.801V296.303H179.921V302.259C179.921 303.228 180.405 303.459 181.088 303.482C181.414 303.49 181.994 303.451 182.391 303.427V306.048C182.033 306.103 181.446 306.167 180.636 306.167C178.221 306.167 176.585 305.087 176.601 302.712V296.303H174.917V293.801H176.601V290.878H179.921V293.801H182.224ZM191.06 297.431C190.909 296.565 190.163 296.017 189.051 296.017C187.971 296.017 187.153 296.525 187.169 297.256C187.153 297.812 187.59 298.241 188.733 298.487L190.925 298.932C193.284 299.416 194.428 300.472 194.436 302.235C194.428 304.634 192.275 306.238 189.035 306.238C185.739 306.238 183.809 304.769 183.531 302.386H186.875C187.034 303.339 187.812 303.832 189.043 303.832C190.25 303.832 191.052 303.355 191.06 302.569C191.052 301.934 190.536 301.545 189.4 301.306L187.375 300.909C185.048 300.449 183.849 299.249 183.857 297.446C183.849 295.104 185.866 293.642 189.003 293.642C192.093 293.642 193.999 295.104 194.166 297.431H191.06ZM207.199 306.238C203.458 306.238 201.211 303.657 201.211 299.948C201.211 296.208 203.498 293.642 207.191 293.642C210.344 293.642 212.472 295.477 212.615 298.28H209.486C209.288 297.073 208.493 296.239 207.239 296.239C205.642 296.239 204.586 297.574 204.586 299.901C204.586 302.251 205.626 303.594 207.239 303.594C208.406 303.594 209.28 302.871 209.486 301.568H212.615C212.457 304.34 210.423 306.238 207.199 306.238ZM220.092 306.238C216.406 306.238 214.103 303.705 214.103 299.948C214.103 296.168 216.406 293.642 220.092 293.642C223.785 293.642 226.08 296.168 226.08 299.948C226.08 303.705 223.785 306.238 220.092 306.238ZM217.479 299.924C217.479 302.069 218.376 303.657 220.115 303.657C221.815 303.657 222.704 302.069 222.704 299.924C222.704 297.788 221.815 296.184 220.115 296.184C218.376 296.184 217.479 297.788 217.479 299.924ZM228.103 306V293.801H231.271V295.945H231.414C231.923 294.516 233.162 293.642 234.814 293.642C236.481 293.642 237.72 294.532 238.117 295.945H238.245C238.753 294.548 240.135 293.642 241.914 293.642C244.185 293.642 245.766 295.143 245.766 297.796V306H242.446V298.439C242.446 297.065 241.62 296.39 240.532 296.39C239.285 296.39 238.546 297.256 238.546 298.535V306H235.322V298.36C235.322 297.161 234.567 296.39 233.44 296.39C232.296 296.39 231.422 297.296 231.422 298.67V306H228.103ZM248.25 306V293.801H251.57V306H248.25ZM248.099 290.513C248.099 289.584 248.917 288.821 249.918 288.821C250.911 288.821 251.729 289.584 251.729 290.513C251.729 291.45 250.911 292.205 249.918 292.205C248.917 292.205 248.099 291.45 248.099 290.513ZM257.432 298.94V306H254.112V293.801H257.281V295.945H257.424C257.972 294.532 259.275 293.642 261.085 293.642C263.627 293.642 265.295 295.382 265.287 298.233V306H261.967V298.812C261.975 297.311 261.157 296.406 259.783 296.406C258.393 296.406 257.44 297.335 257.432 298.94ZM273.271 310.829C269.912 310.829 267.831 309.32 267.64 307.001H270.912C271.095 307.985 272.016 308.422 273.343 308.422C274.883 308.422 275.916 307.771 275.916 306.079V303.832H275.773C275.328 304.833 274.256 305.825 272.294 305.825C269.53 305.825 267.33 303.887 267.33 299.829C267.33 295.699 269.586 293.642 272.286 293.642C274.335 293.642 275.32 294.865 275.773 295.85H275.9V293.801H279.196V306.127C279.196 309.248 276.742 310.829 273.271 310.829ZM270.73 299.861C270.73 301.981 271.643 303.324 273.335 303.324C274.979 303.324 275.932 302.029 275.932 299.861C275.932 297.701 274.994 296.303 273.335 296.303C271.627 296.303 270.73 297.764 270.73 299.861ZM293.999 297.431C293.848 296.565 293.101 296.017 291.989 296.017C290.909 296.017 290.091 296.525 290.107 297.256C290.091 297.812 290.528 298.241 291.672 298.487L293.864 298.932C296.222 299.416 297.366 300.472 297.374 302.235C297.366 304.634 295.214 306.238 291.973 306.238C288.678 306.238 286.748 304.769 286.47 302.386H289.813C289.972 303.339 290.75 303.832 291.981 303.832C293.189 303.832 293.991 303.355 293.999 302.569C293.991 301.934 293.474 301.545 292.339 301.306L290.314 300.909C287.987 300.449 286.787 299.249 286.795 297.446C286.787 295.104 288.805 293.642 291.942 293.642C295.031 293.642 296.937 295.104 297.104 297.431H293.999ZM304.837 306.238C301.152 306.238 298.848 303.705 298.848 299.948C298.848 296.168 301.152 293.642 304.837 293.642C308.53 293.642 310.825 296.168 310.825 299.948C310.825 303.705 308.53 306.238 304.837 306.238ZM302.224 299.924C302.224 302.069 303.121 303.657 304.86 303.657C306.56 303.657 307.45 302.069 307.45 299.924C307.45 297.788 306.56 296.184 304.86 296.184C303.121 296.184 302.224 297.788 302.224 299.924ZM318.336 306.238C314.651 306.238 312.347 303.705 312.347 299.948C312.347 296.168 314.651 293.642 318.336 293.642C322.029 293.642 324.324 296.168 324.324 299.948C324.324 303.705 322.029 306.238 318.336 306.238ZM315.723 299.924C315.723 302.069 316.62 303.657 318.359 303.657C320.059 303.657 320.949 302.069 320.949 299.924C320.949 297.788 320.059 296.184 318.359 296.184C316.62 296.184 315.723 297.788 315.723 299.924ZM329.667 298.94V306H326.347V293.801H329.516V295.945H329.659C330.207 294.532 331.509 293.642 333.32 293.642C335.861 293.642 337.529 295.382 337.521 298.233V306H334.201V298.812C334.209 297.311 333.391 296.406 332.017 296.406C330.627 296.406 329.674 297.335 329.667 298.94ZM349.289 289.735L348.988 301.132H346.12L345.819 289.735H349.289ZM345.676 304.316C345.66 303.284 346.518 302.442 347.558 302.442C348.567 302.442 349.44 303.284 349.448 304.316C349.44 305.357 348.567 306.199 347.558 306.199C346.518 306.199 345.66 305.357 345.676 304.316ZM356.275 289.735L355.973 301.132H353.106L352.804 289.735H356.275ZM352.661 304.316C352.645 303.284 353.503 302.442 354.543 302.442C355.552 302.442 356.426 303.284 356.433 304.316C356.426 305.357 355.552 306.199 354.543 306.199C353.503 306.199 352.645 305.357 352.661 304.316Z" fill="#BEBEBE"/>
<rect x="6.5" y="4.5" width="401" height="612" rx="4.5" stroke="#E4E4E4"/>
</g>
<defs>
<filter id="filter0_d_504_964" x="0" y="0" width="414" height="625" filterUnits="userSpaceOnUse" color-interpolation-filters="sRGB">
<feFlood flood-opacity="0" result="BackgroundImageFix"/>
<feColorMatrix in="SourceAlpha" type="matrix" values="0 0 0 0 0 0 0 0 0 0 0 0 0 0 0 0 0 0 127 0" result="hardAlpha"/>
<feMorphology radius="2" operator="dilate" in="SourceAlpha" result="effect1_dropShadow_504_964"/>
<feOffset dy="2"/>
<feGaussianBlur stdDeviation="2"/>
<feComposite in2="hardAlpha" operator="out"/>
<feColorMatrix type="matrix" values="0 0 0 0 0 0 0 0 0 0 0 0 0 0 0 0 0 0 0.05 0"/>
<feBlend mode="normal" in2="BackgroundImageFix" result="effect1_dropShadow_504_964"/>
<feBlend mode="normal" in="SourceGraphic" in2="effect1_dropShadow_504_964" result="shape"/>
</filter>
</defs>
</svg>
